PathFileType	4	(X/Y/Z)	pose_F01_0-96.trc
DataRate	CameraRate	NumFrames	NumMarkers	Units	OrigDataRate	OrigDataStartFrame	OrigNumFrames
30	30	7	21	m	30	72	96
Frame#	Time	CHip			RHip			RKnee			RAnkle			RBigToe			RSmallToe			RHeel			LHip			LKnee			LAnkle			LBigToe			LSmallToe			LHeel			Neck			Nose			RShoulder			RElbow			RWrist			LShoulder			LElbow			LWrist			
		X1	Y1	Z1	X2	Y2	Z2	X3	Y3	Z3	X4	Y4	Z4	X5	Y5	Z5	X6	Y6	Z6	X7	Y7	Z7	X8	Y8	Z8	X9	Y9	Z9	X10	Y10	Z10	X11	Y11	Z11	X12	Y12	Z12	X13	Y13	Z13	X14	Y14	Z14	X15	Y15	Z15	X16	Y16	Z16	X17	Y17	Z17	X18	Y18	Z18	X19	Y19	Z19	X20	Y20	Z20	X21	Y21	Z21	
72	2.4	-0.17390245010956562	1.8543958552245043	-0.6458723847036069	-0.18750234570041163	1.8538962449491077	-0.584804728906267	-0.20093056058362344	1.725818151417606	-0.5631070948132556	-0.1730088985883452	1.6076239529868	-0.5835222104532135	-0.19340295861437223	1.5624544626000738	-0.5653048676244722	-0.19544624294938173	1.5688380231466466	-0.5373805109792043	-0.16638441887218405	1.599921605221951	-0.5982848572344144	-0.15785954999332474	1.8549912488155589	-0.7121385179412746	-0.17487813708194824	1.7245827748384437	-0.6674147224584234	-0.1569300055567234	1.5995129447519854	-0.662960994501866	-0.17827525965304866	1.55893159727495	-0.6362114791519964	-0.16867617703215218	1.5659038382338177	-0.6720584681017744	-0.14541943685809294	1.5907667142977566	-0.6611809951834903	-0.15627237672528232	2.006970797971277	-0.6811643235816613	-0.17734462381128951	2.074166234851891	-0.6620223194160496	-0.17375695958734697	2.0030045658451257	-0.5932195739745152	-0.18588104925642715	1.9289378768884873	-0.5406445543344495	-0.19460430702047704	1.9791060911712406	-0.5638409986915511	-0.13652295877313864	2.012316226667079	-0.7691452231180453	-0.1476940790624263	1.9344885631804483	-0.7823811311024654	-0.7717656604637894	1.9314480661346625	-0.1179598496292592
73	2.433333333333333	-0.1748109285397847	1.833468653371878	-0.6427484008395947	-0.18915569069221397	1.8316696584093122	-0.5845040467432188	-0.2030154486268058	1.7097145499427042	-0.5632987549601148	-0.17398581674510424	1.5896740746865459	-0.5798495098297112	-0.2028906942722303	1.5561582660892257	-0.5538329105940184	-0.1983043560390326	1.5633788593654572	-0.5336053934031741	-0.16667138195840062	1.5832484085119511	-0.5911380936978468	-0.15873340598089605	1.8340076620863799	-0.7091386700678943	-0.1798629166289139	1.7094464682291346	-0.6606794145584809	-0.1569263520701813	1.5927661308082475	-0.6576378691930551	-0.18018411508006502	1.5585853697019432	-0.6380922637083052	-0.17196721479362298	1.5627851620529447	-0.6679958728769841	-0.1424389902996284	1.5818155423713105	-0.6542246528645957	-0.159163721635684	1.9855152850818265	-0.6764962222092495	-0.17787403883781822	2.056797534584931	-0.6600321217712813	-0.1766041467158485	1.9828771673685635	-0.5880107919107497	-0.18026497883770992	1.9084174211186478	-0.5441306297735905	-0.19763279632121367	1.957825531627551	-0.5601957289654195	-0.1371719234924497	1.9894293922450597	-0.7668380969319236	-0.14715366929073356	1.9084411314669745	-0.7730271070180644	-1.3800839391616262	1.869571707926743	0.524527837597831
74	2.466666666666667	-0.17736269690367634	1.8254646505930852	-0.639137552131509	-0.18895473239325258	1.8263272666865904	-0.5803649257418624	-0.2005057975338817	1.7018552654493668	-0.5606003165395178	-0.1746853024003357	1.5882953576936814	-0.5834719078100179	-0.20270233926617792	1.5549179885601416	-0.5540973855751755	-0.19910067623108338	1.562329722369156	-0.5370772957007487	-0.16827478829021447	1.5815968126970106	-0.5979549895111729	-0.16061676014805282	1.8256948096836512	-0.7025215415140703	-0.1772816567848681	1.701325720499918	-0.6580434557222747	-0.15632461880397566	1.5882938787464838	-0.6534734362841517	-0.18027584620529155	1.556177818576202	-0.6374958980280026	-0.17198179477493603	1.5599936164581107	-0.6673251200295347	-0.14353151535899228	1.5770584628945354	-0.6563391174433465	-0.1594051763484429	1.9817124961140384	-0.6759930892774703	-0.1780572786575575	2.053057555447582	-0.6597160148638421	-0.1789590532737744	1.97790200937843	-0.5854094530826345	-0.18272032138161629	1.901405815487093	-0.5496464662185082	-1.6853647702851209	1.8758431143266878	1.051660680352953	-0.1375097170613638	1.9857454549683928	-0.7667291044687592	-0.15233199171622774	1.9037167672839324	-0.7674299479207997	-0.9737752326929072	1.9143397005907545	0.09502723098001875
75	2.5	-0.17707104657714767	1.8465782943867852	-0.6423735663744614	-0.19059391816285848	1.846110080922587	-0.5813579875252225	-0.1950320839965483	1.7154791480182523	-0.5639949295346326	-0.1770062468883153	1.593485880762597	-0.572870968596933	-0.20137870069463545	1.5561293978186883	-0.5513759111280597	-0.19878725457112828	1.5630151691497944	-0.5287890151693583	-0.16951104126509614	1.5857190178456808	-0.5843515016318409	-0.16016092381057928	1.8455765788009804	-0.7054562372029007	-0.17225038905659093	1.7192936155135468	-0.6655724309920701	-0.15713230626364438	1.5942141332341837	-0.6621697419366165	-0.1785921260839816	1.5577151186958909	-0.635631878622274	-0.16873839198329685	1.562925237119675	-0.6715260603601195	-0.14590928585641488	1.5843125376532878	-0.6597613297478306	-0.15653797535128097	1.9995959899079305	-0.6807914846221631	-0.17648122725790052	2.0670555178750476	-0.6673988477366302	-0.17698112831708385	1.996796144663116	-0.593293207772973	-0.18546725597707175	1.9232324603083624	-0.5456296253014605	-0.19819868254773476	1.974550763719404	-0.5662456288726385	-0.13231685343827013	2.0037349996703746	-0.7734811294544985	-0.1474170358781339	1.9298131431476706	-0.7792066701423208	-0.5674665262241881	1.9591076932547662	-0.33447337563779345
76	2.533333333333333	-0.1730571173158328	1.8690195495807216	-0.6448262558968453	-0.18586110391644398	1.8669844242141151	-0.5804546083775045	-0.1882804962480037	1.7347196419849902	-0.5737662288411034	-0.17245458292853844	1.6103999873971289	-0.5798091191479848	-0.19549954275189133	1.568973361873275	-0.5634388205533077	-0.19440470849485914	1.577129497108433	-0.535058744403987	-0.16580989713497016	1.6024822021584506	-0.5944338787498153	-0.15830735456577372	1.8680957802974585	-0.7055222008241279	-0.16752739191738328	1.7374159063968029	-0.6726008588418975	-0.1565593659939462	1.6092620462793472	-0.6601252195601369	-0.1738563290596113	1.5661132410089664	-0.6412828771260697	-0.16305976374266104	1.5712368707063666	-0.6741587437719593	-0.1492432542085606	1.5988664432383997	-0.6537876551541411	-0.15396858898459623	2.017460165697636	-0.6854715984722508	-0.17503404028372052	2.0807649400980055	-0.6654528530609909	-0.17443197117587259	2.0160520331180463	-0.5988856391001325	-0.1888459950402998	1.9428775641238183	-0.5351525521284555	-0.19474552439528686	1.9957725022738069	-0.5594744594867435	-0.13179442968733807	2.0227383791749105	-0.7755873007164672	-0.14687581451826676	1.9489907756773477	-0.7840485263750572	-0.16115781975546917	2.0038756859187776	-0.7639739822556056
77	2.566666666666667	-0.170658780839076	1.866373350049467	-0.6466623957201761	-0.18342451882019994	1.8656959368851473	-0.5823907735337364	-0.18690880200164556	1.7376086092131928	-0.5797298475546332	-0.16532383203806197	1.6149425094076315	-0.5882680625313215	-0.18817596297726547	1.5697000855312815	-0.5670249681857096	-0.18993472044981663	1.576246599179979	-0.539831010526263	-0.15991490460852356	1.6070408029926169	-0.5974233041565652	-0.1557164009122082	1.8667333021191894	-0.7074761297741696	-0.1662445733300596	1.735800120319382	-0.6695324866988546	-0.15645102052161855	1.6049858201560938	-0.6598189125500938	-0.1759991560597458	1.5648226730384707	-0.6392500051262636	-0.16617691106459231	1.57056951307727	-0.6751729207585867	-0.14915015024854947	1.594911117163974	-0.6535864235444692	-0.1558131492810993	2.018429591427354	-0.6825908212172215	-0.1749227564796742	2.0844389255306264	-0.6655818202012014	-0.1714191438617679	2.015808724237307	-0.5974624073840357	-0.18871582486293922	1.9441355241584861	-0.5352871306984266	-0.19397742993271108	1.985011682668934	-0.5635253305929349	-0.13381503778056417	2.022458013265969	-0.7722256588981048	-0.14623319711803592	1.9475676937249515	-0.7808143180139997	-0.16418987365274776	1.9973284250429082	-0.7617113450122924
78	2.6	-0.1707265898577025	1.8556831403358702	-0.6452173104118843	-0.1854683689221553	1.855338925609742	-0.5872569119184771	-0.17961129742677184	1.7216192113395563	-0.5813060492818285	-0.16214772723447013	1.602474501472686	-0.5858779555330447	-0.1849697814573119	1.5655884724013331	-0.5658048987363296	-0.1867782622885055	1.5703046803604837	-0.53806429822882	-0.15718866701702408	1.5944216424271767	-0.5942726789076306	-0.15601896711452137	1.8562465278008657	-0.7060384064185472	-0.16269496722840024	1.723882539939339	-0.6757938474375532	-0.15198515124477024	1.595466958164969	-0.6635161695771392	-0.17613712816669744	1.5598099318362624	-0.6383760956506186	-0.16660471794080087	1.5641486316070545	-0.6737426964831523	-0.1424855510487416	1.585511407165333	-0.6595172662272397	-0.15626166011573256	2.001917549470539	-0.6799696088152064	-0.17524020909559188	2.073232660880017	-0.6644508359430813	-0.17797354897999917	1.9989012189924484	-0.5877280269925433	-0.1867871533534075	1.9271332645978774	-0.5435431669503435	-0.1932093354701353	1.974250863064061	-0.5675762016991261	-0.13416131796326988	2.0072241181341384	-0.7705381447298149	-1.3197058590914792	1.84538226135148	0.42984438910866285	-0.16537121912927022	1.9669813595487398	-0.727755464223338
